<svg xmlns="http://www.w3.org/2000/svg" viewBox="0 0 512 512"><linearGradient id="a" gradientUnits="userSpaceOnUse" x1="165.951" y1="426.929" x2="274.641" y2="185.399" gradientTransform="matrix(1.0667 0 0 -1.0667 3.267 557.533)"><stop offset="0" stop-color="#00a6f9"/><stop offset="1" stop-color="#0071e2"/></linearGradient><path d="M453.477 42.994H58.519c-11.092 0-20.095 9.003-20.095 20.095v414.624c0 11.092 9.003 20.095 20.095 20.095h394.958c11.092 0 20.095-9.003 20.095-20.095V63.089c0-11.092-9.001-20.095-20.095-20.095z" fill="url(#a)"/><linearGradient id="b" gradientUnits="userSpaceOnUse" x1="97.528" y1="323.878" x2="377.618" y2="21.118" gradientTransform="matrix(1.0667 0 0 -1.0667 3.267 557.533)"><stop offset="0" stop-color="#c2cece"/><stop offset="1" stop-color="#97aaaa"/></linearGradient><path d="M453.474 497.808H58.524c-11.098 0-20.095-8.996-20.095-20.095V260.019h435.14v217.694c0 11.099-8.997 20.095-20.095 20.095z" fill="url(#b)"/><linearGradient id="c" gradientUnits="userSpaceOnUse" x1="236.936" y1="61.307" x2="236.936" y2="103.087" gradientTransform="matrix(1.0667 0 0 -1.0667 3.267 557.533)"><stop offset="0" stop-color="#c2cece" stop-opacity="0"/><stop offset=".179" stop-color="#afbcbc" stop-opacity=".179"/><stop offset="1" stop-color="#5b6a6a"/></linearGradient><path d="M453.474 497.808H58.524c-11.098 0-20.095-8.996-20.095-20.095v-42.199h435.14v42.199c0 11.099-8.997 20.095-20.095 20.095z" fill="url(#c)"/><linearGradient id="d" gradientUnits="userSpaceOnUse" x1="61.725" y1="265.133" x2="511.125" y2="62.723" gradientTransform="matrix(1.0667 0 0 -1.0667 3.267 557.533)"><stop offset="0" stop-color="#00a6f9"/><stop offset="1" stop-color="#0071e2"/></linearGradient><path d="M491.894 448.911H20.103c-12.908 0-22.468-11.996-19.588-24.578L38.429 258.68h435.14l37.914 165.653c2.88 12.582-6.681 24.578-19.589 24.578z" fill="url(#d)"/><linearGradient id="e" gradientUnits="userSpaceOnUse" x1="236.936" y1="118.997" x2="236.936" y2="93.877" gradientTransform="matrix(1.0667 0 0 -1.0667 3.267 557.533)"><stop offset="0" stop-color="#008bf2" stop-opacity="0"/><stop offset="1" stop-color="#0046e2"/></linearGradient><path d="M491.894 448.911H20.103c-12.908 0-22.468-11.996-19.588-24.578L38.429 258.68h435.14l37.914 165.653c2.88 12.582-6.681 24.578-19.589 24.578z" fill="url(#e)"/><linearGradient id="f" gradientUnits="userSpaceOnUse" x1="322.136" y1="194.976" x2="37.425" y2="479.686" gradientTransform="matrix(1.0667 0 0 -1.0667 3.267 557.533)"><stop offset="0" stop-color="#008bf2" stop-opacity="0"/><stop offset="1" stop-color="#0046e2"/></linearGradient><path d="M491.894 448.911c12.908 0 22.468-11.996 19.588-24.578L473.568 258.68H38.429L228.66 448.911h263.234z" fill="url(#f)"/><linearGradient id="g" gradientUnits="userSpaceOnUse" x1="206.986" y1="138.596" x2="160.336" y2="196.346" gradientTransform="matrix(1.0667 0 0 -1.0667 3.267 557.533)"><stop offset="0" stop-color="#c2cece" stop-opacity="0"/><stop offset=".179" stop-color="#afbcbc" stop-opacity=".179"/><stop offset="1" stop-color="#5b6a6a"/></linearGradient><path d="M473.569 448.911H38.429v.67l48.227 48.227h366.818c11.098 0 20.095-8.996 20.095-20.095v-28.802z" fill="url(#g)"/><g fill="#fff"><path d="M152.136 298.536v-84.781c0-22.333 5.922-38.749 17.772-49.237 11.845-10.489 27.678-15.732 47.488-15.732 19.811 0 35.69 5.244 47.635 15.732 11.945 10.489 17.917 26.903 17.917 49.237v84.781c0 22.338-5.972 38.749-17.917 49.237-11.946 10.489-27.823 15.732-47.635 15.732-19.811 0-35.644-5.244-47.488-15.732-11.849-10.489-17.772-26.9-17.772-49.237zm30.883 0c0 25.056 11.458 37.584 34.379 37.584 11.071 0 19.616-3.105 25.638-9.324 6.018-6.213 9.031-15.632 9.031-28.26v-84.781c0-12.623-3.013-22.043-9.031-28.26-6.022-6.213-14.567-9.324-25.638-9.324-22.921 0-34.379 12.528-34.379 37.584v84.781zM301.885 192.779c0-5.049 2.038-9.031 6.118-11.946l30.3-29.134c2.134-2.135 4.757-3.205 7.866-3.205 3.497 0 6.651.925 9.469 2.768 2.814 1.847 4.224 4.324 4.224 7.429V351.56c0 3.109-1.557 5.586-4.661 7.429-3.109 1.847-6.701 2.768-10.78 2.768-4.275 0-7.917-.919-10.925-2.768-3.013-1.844-4.516-4.32-4.516-7.429V189.573l-10.197 12.819c-1.943 1.943-4.079 2.913-6.41 2.913-2.913 0-5.39-1.311-7.429-3.933-2.04-2.621-3.059-5.484-3.059-8.593z"/></g><linearGradient id="h" gradientUnits="userSpaceOnUse" x1="200.884" y1="248.117" x2="200.884" y2="391.447" gradientTransform="matrix(1.0667 0 0 -1.0667 3.267 557.533)"><stop offset="0" stop-color="#c2cece" stop-opacity="0"/><stop offset=".179" stop-color="#afbcbc" stop-opacity=".179"/><stop offset="1" stop-color="#5b6a6a"/></linearGradient><path d="M252.06 258.679v39.855c0 12.633-3.001 22.051-9.029 28.267-6.015 6.217-14.562 9.324-25.628 9.324-22.922 0-34.389-12.54-34.389-37.59V258.68h-30.879v39.855c0 22.346 5.921 38.756 17.777 49.232 11.842 10.49 27.678 15.741 47.491 15.741 19.801 0 35.689-5.251 47.625-15.741 11.95-10.476 17.924-26.887 17.924-49.232V258.68l-30.892-.001z" fill="url(#h)"/><linearGradient id="i" gradientUnits="userSpaceOnUse" x1="319.834" y1="248.117" x2="319.834" y2="391.447" gradientTransform="matrix(1.0667 0 0 -1.0667 3.267 557.533)"><stop offset="0" stop-color="#c2cece" stop-opacity="0"/><stop offset=".179" stop-color="#afbcbc" stop-opacity=".179"/><stop offset="1" stop-color="#5b6a6a"/></linearGradient><path d="M328.983 258.679v92.879c0 3.108 1.501 5.586 4.514 7.435 3.001 1.849 6.644 2.759 10.918 2.759 4.086 0 7.677-.911 10.784-2.759 3.108-1.849 4.662-4.327 4.662-7.435v-92.879h-30.878z" fill="url(#i)"/><linearGradient id="j" gradientUnits="userSpaceOnUse" x1="441.341" y1="293.279" x2="345.241" y2="268.159" gradientTransform="matrix(1.0667 0 0 -1.0667 3.267 557.533)"><stop offset="0" stop-color="#008bf2" stop-opacity="0"/><stop offset="1" stop-color="#0046e2"/></linearGradient><path d="M511.485 424.328l-37.913-165.649V63.089c0-11.092-9.003-20.095-20.095-20.095h-9.504c11.092 0 20.095 9.003 20.095 20.095v195.59l37.913 165.649c2.88 12.593-6.685 24.582-19.586 24.582h9.504c12.901.001 22.466-11.99 19.586-24.582z" fill="url(#j)"/><linearGradient id="k" gradientUnits="userSpaceOnUse" x1="205.018" y1="432.488" x2="167.788" y2="469.717" gradientTransform="matrix(1.0667 0 0 -1.0667 3.267 557.533)"><stop offset="0" stop-color="#008bf2" stop-opacity="0"/><stop offset="1" stop-color="#0046e2"/></linearGradient><path d="M170.864 78.79c-3.658-3.429-5.962-8.279-5.962-13.692V42.994h37.51l30.634 30.634a52.068 52.068 0 0 1 15.25 36.817c0 10.116-7.783 18.816-17.889 19.273-5.76.26-10.946-2.091-14.557-5.941L170.864 78.79z" fill="url(#k)"/><linearGradient id="l" gradientUnits="userSpaceOnUse" x1="169.116" y1="508.479" x2="169.116" y2="306.917" gradientTransform="matrix(1.0667 0 0 -1.0667 3.267 557.533)"><stop offset="0" stop-color="#ffc200"/><stop offset=".268" stop-color="#fb0"/><stop offset=".659" stop-color="#ffa801"/><stop offset="1" stop-color="#ff9102"/></linearGradient><path d="M183.658 83.854c-10.358 0-18.755-8.397-18.755-18.755V32.947c0-10.358 8.397-18.755 18.755-18.755 10.358 0 18.755 8.397 18.755 18.755v32.151c0 10.359-8.397 18.756-18.755 18.756z" fill="url(#l)"/><linearGradient id="m" gradientUnits="userSpaceOnUse" x1="171.937" y1="476.728" x2="187.797" y2="476.728" gradientTransform="matrix(1.0667 0 0 -1.0667 3.267 557.533)"><stop offset="0" stop-color="#ffc200" stop-opacity="0"/><stop offset=".203" stop-color="#fb0" stop-opacity=".203"/><stop offset=".499" stop-color="#ffa700" stop-opacity=".499"/><stop offset=".852" stop-color="#f80" stop-opacity=".852"/><stop offset="1" stop-color="#ff7800"/></linearGradient><path d="M183.658 14.192v69.662c10.358 0 18.755-8.397 18.755-18.755V32.947c0-10.358-8.397-18.755-18.755-18.755z" fill="url(#m)"/><linearGradient id="n" gradientUnits="userSpaceOnUse" x1="332.808" y1="432.488" x2="295.578" y2="469.717" gradientTransform="matrix(1.0667 0 0 -1.0667 3.267 557.533)"><stop offset="0" stop-color="#008bf2" stop-opacity="0"/><stop offset="1" stop-color="#0046e2"/></linearGradient><path d="M307.173 78.79c-3.658-3.429-5.962-8.279-5.962-13.692V42.994h37.51l30.634 30.634a52.068 52.068 0 0 1 15.25 36.817c0 10.116-7.783 18.816-17.889 19.273-5.76.26-10.946-2.091-14.557-5.941L307.173 78.79z" fill="url(#n)"/><linearGradient id="o" gradientUnits="userSpaceOnUse" x1="296.907" y1="508.479" x2="296.907" y2="306.917" gradientTransform="matrix(1.0667 0 0 -1.0667 3.267 557.533)"><stop offset="0" stop-color="#ffc200"/><stop offset=".268" stop-color="#fb0"/><stop offset=".659" stop-color="#ffa801"/><stop offset="1" stop-color="#ff9102"/></linearGradient><path d="M319.968 83.854c-10.358 0-18.755-8.397-18.755-18.755V32.947c0-10.358 8.397-18.755 18.755-18.755 10.358 0 18.755 8.397 18.755 18.755v32.151c0 10.359-8.398 18.756-18.755 18.756z" fill="url(#o)"/><linearGradient id="p" gradientUnits="userSpaceOnUse" x1="299.737" y1="476.728" x2="315.587" y2="476.728" gradientTransform="matrix(1.0667 0 0 -1.0667 3.267 557.533)"><stop offset="0" stop-color="#ffc200" stop-opacity="0"/><stop offset=".203" stop-color="#fb0" stop-opacity=".203"/><stop offset=".499" stop-color="#ffa700" stop-opacity=".499"/><stop offset=".852" stop-color="#f80" stop-opacity=".852"/><stop offset="1" stop-color="#ff7800"/></linearGradient><path d="M319.968 14.192v69.662c10.358 0 18.755-8.397 18.755-18.755V32.947c0-10.358-8.398-18.755-18.755-18.755z" fill="url(#p)"/></svg>