<svg xmlns="http://www.w3.org/2000/svg" viewBox="0 0 512 512"><style>.a{fill:#00C47A;}.b{fill:#0999DB;}.c{fill:#FFD699;}.d{fill:#FFC266;}</style><path d="M4.6 34.9l11.6 56L0 134.3l15.8 42.2L0 218.8l15.8 42.2L0 303.3l15.8 42.2L0 387.7l16.2 43.4L4.6 487.2h380.1V34.9H4.6z" fill="#C6E9F9"/><rect x="192" y="34.9" width="192.7" height="452.4" fill="#96D7F5"/><polygon points="123.6 169.6 94.3 140.3 115.5 119 123.6 127.1 141 109.7 162.2 130.9 " class="a"/><rect x="192" y="124" width="112.2" height="30" class="b"/><polygon points="123.6 254 94.3 224.7 115.5 203.5 123.6 211.6 141 194.2 162.2 215.4 " class="a"/><rect x="192" y="208.5" width="112.2" height="30" class="b"/><polygon points="123.6 338.5 94.3 309.2 115.5 288 123.6 296.1 141 278.6 162.2 299.9 " class="a"/><rect x="192" y="292.9" width="112.2" height="30" class="b"/><polygon points="123.6 423 94.3 393.7 115.5 372.5 123.6 380.5 141 363.1 162.2 384.3 " class="a"/><rect x="192" y="377.4" width="112.2" height="30" class="b"/><path d="M413.1 380.6v63.7l49.5 54.7L512 444.3v-63.7H413.1z" class="c"/><polygon points="462.5 380.6 462.5 499 512 444.3 512 380.6 " class="d"/><polygon points="427.6 460.3 462.5 499 497.5 460.3 " fill="#054D6E"/><rect x="413.1" y="72" width="98.9" height="335" fill="#F90"/><rect x="462.6" y="72" width="49.5" height="335" fill="#F70"/><rect x="413.1" y="72" width="98.9" height="47" fill="#4BBAED"/><rect x="462.6" y="72" width="49.5" height="47" class="b"/><path d="M463.4 13h-1.7c-26.8 0-48.6 21.8-48.6 48.6v14.8H512V61.5C512 34.8 490.2 13 463.4 13z" class="c"/><path d="M463.4 13h-0.9v63.3H512V61.5C512 34.8 490.2 13 463.4 13z" class="d"/></svg>